<svg xmlns="http://www.w3.org/2000/svg" viewBox="0 0 25.4 40"><defs><style>.cls-1{fill:#b7b7b7;}</style></defs><title>grayLogo</title><g id="Layer_2" data-name="Layer 2"><g id="drawing"><rect class="cls-1" x="15.7" width="9.7" height="9.7" rx="0.81" ry="0.81"/><path class="cls-1" d="M24.38,14.6H16.72a1,1,0,0,0-1,1V30.9A3.08,3.08,0,0,1,12.9,34a3,3,0,0,1-3.2-3V1a1,1,0,0,0-1-1H1A1,1,0,0,0,0,1V32.1a3,3,0,0,0,1.72,2.72l9.7,4.89a3,3,0,0,0,2.56,0l9.7-4.89A3,3,0,0,0,25.4,32.1V15.62A1,1,0,0,0,24.38,14.6Z"/></g></g></svg>