<svg xmlns="http://www.w3.org/2000/svg" viewBox="0 0 40 40"><defs><style>.cls-1,.cls-2{fill:#fff;}.cls-1{opacity:0;}</style></defs><title>Web Dev Port Logo</title><g id="Layer_2" data-name="Layer 2"><g id="drawing"><rect class="cls-1" width="40" height="40"/><rect class="cls-2" x="23" width="9.7" height="9.7" rx="0.81" ry="0.81"/><path class="cls-2" d="M31.68,14.6H24a1,1,0,0,0-1,1V30.9A3.08,3.08,0,0,1,20.2,34,3,3,0,0,1,17,31V1a1,1,0,0,0-1-1H8.32a1,1,0,0,0-1,1V32.1A3,3,0,0,0,9,34.82l9.7,4.89a3,3,0,0,0,2.56,0L31,34.82A3,3,0,0,0,32.7,32.1V15.62A1,1,0,0,0,31.68,14.6Z"/></g></g></svg>